<svg width="644" height="663" viewBox="0 0 644 663" fill="none" xmlns="http://www.w3.org/2000/svg">
<path d="M539.542 597.755C543.257 607.844 538.101 619.048 527.992 622.783C517.904 626.498 506.699 621.342 502.964 611.234C499.25 601.145 504.405 589.94 514.514 586.205C524.623 582.491 535.827 587.647 539.542 597.755Z" fill="#EBF4FF"/>
<path d="M198.764 594.527C204.156 594.527 208.527 590.156 208.527 584.764C208.527 579.371 204.156 575 198.764 575C193.371 575 189 579.371 189 584.764C189 590.156 193.371 594.527 198.764 594.527Z" fill="#EBF4FF"/>
<path d="M447.935 646.675C449.803 651.73 447.204 657.353 442.15 659.22C437.096 661.087 431.473 658.489 429.606 653.435C427.738 648.38 430.336 642.758 435.391 640.89C440.445 639.043 446.068 641.621 447.935 646.675Z" fill="#EBF4FF"/>
<path d="M198.55 164.42L242.839 20.6182H412.12L361.76 168.658L198.55 164.42Z" fill="#5468FF"/>
<path d="M198.55 164.42L242.839 20.6182H412.12L361.76 168.658L198.55 164.42Z" fill="#5468FF"/>
<path d="M258.633 66.2793H337.34L317.769 142.73L229.9 139.402L250.93 71.9511C251.44 70.3074 252.464 68.8702 253.85 67.8497C255.236 66.8292 256.912 66.2789 258.633 66.2793Z" fill="white"/>
<path d="M615.968 82.5088H643.878L578.958 277.867H330.821L615.968 82.5088Z" fill="#5468FF"/>
<path d="M329.001 63.6987H628.707L565.62 259.057H265.901L329.001 63.6987Z" fill="white"/>
<path opacity="0.8" d="M329.001 63.6987H628.707L565.62 259.057H265.901L329.001 63.6987Z" fill="#5468FF"/>
<path d="M233.69 50.3358H402.011L412.12 20.6182H242.84L233.69 50.3358Z" fill="#5468FF"/>
<path opacity="0.25" d="M233.69 50.3358H402.011L412.12 20.6182H242.84L233.69 50.3358Z" fill="#000D44"/>
<path d="M256.92 40.578C260.59 39.8679 263.088 36.8266 262.5 33.785C261.911 30.7434 258.459 28.8533 254.789 29.5634C251.118 30.2735 248.62 33.3148 249.209 36.3564C249.797 39.3981 253.25 41.2881 256.92 40.578Z" fill="white"/>
<path d="M279.352 40.7899C283.022 40.0799 285.52 37.0385 284.932 33.9969C284.343 30.9553 280.891 29.0652 277.22 29.7753C273.55 30.4854 271.052 33.5267 271.64 36.5684C272.229 39.61 275.681 41.5 279.352 40.7899Z" fill="white"/>
<path d="M300.574 41.6776C304.244 40.9675 306.743 37.9262 306.154 34.8846C305.566 31.843 302.113 29.9529 298.443 30.663C294.773 31.3731 292.275 34.4144 292.863 37.4561C293.452 40.4977 296.904 42.3877 300.574 41.6776Z" fill="white"/>
<path d="M314.516 104.349H615.581L628.707 63.6987H329.001L314.516 104.349Z" fill="#5468FF"/>
<path opacity="0.25" d="M314.516 104.349H615.581L628.707 63.6987H329.001L314.516 104.349Z" fill="#000D44"/>
<path d="M343.809 90.1361C347.479 89.426 349.977 86.3847 349.389 83.3431C348.8 80.3015 345.348 78.4114 341.678 79.1215C338.008 79.8316 335.509 82.8729 336.098 85.9145C336.686 88.9562 340.139 90.8462 343.809 90.1361Z" fill="white"/>
<path d="M462.468 0H628.708L603.228 80.078H434.571L462.468 0Z" fill="#5468FF"/>
<path d="M366.253 90.3451C369.923 89.635 372.421 86.5937 371.833 83.5521C371.244 80.5104 367.792 78.6204 364.121 79.3305C360.451 80.0406 357.953 83.0819 358.541 86.1235C359.13 89.1651 362.582 91.0552 366.253 90.3451Z" fill="white"/>
<path d="M387.462 91.2353C391.132 90.5252 393.63 87.4838 393.042 84.4422C392.453 81.4006 389.001 79.5105 385.331 80.2206C381.661 80.9307 379.162 83.9721 379.751 87.0137C380.339 90.0553 383.792 91.9454 387.462 91.2353Z" fill="white"/>
<path d="M314.703 196.144C318.879 181.833 330.759 146.581 335.894 131.323C336.61 129.213 337.969 127.38 339.78 126.081C341.591 124.782 343.763 124.083 345.991 124.081H443.982C445.018 124.083 446.038 124.33 446.96 124.802C447.882 125.274 448.68 125.957 449.287 126.796C449.895 127.634 450.296 128.605 450.457 129.628C450.618 130.651 450.535 131.697 450.215 132.682L429.809 195.583C429.058 197.895 427.587 199.906 425.611 201.321C423.635 202.737 421.258 203.482 418.827 203.449L319.103 202.202C318.377 202.189 317.664 202.008 317.02 201.673C316.377 201.338 315.819 200.858 315.393 200.27C314.966 199.683 314.682 199.004 314.562 198.288C314.442 197.572 314.491 196.838 314.703 196.144Z" fill="white"/>
<path d="M419.051 204.06H418.839L319.116 202.813C318.301 202.796 317.501 202.591 316.779 202.216C316.056 201.84 315.429 201.303 314.947 200.646C314.465 199.989 314.14 199.23 313.999 198.428C313.857 197.626 313.902 196.802 314.129 196.019C318.33 181.622 330.334 145.871 335.321 131.199C336.077 128.963 337.516 127.02 339.435 125.645C341.353 124.27 343.655 123.531 346.016 123.533H444.007C445.139 123.53 446.257 123.796 447.267 124.307C448.278 124.818 449.154 125.561 449.823 126.474C450.493 127.388 450.937 128.447 451.12 129.564C451.303 130.682 451.219 131.827 450.875 132.907L430.469 195.807C429.685 198.215 428.157 200.311 426.105 201.794C424.053 203.277 421.583 204.071 419.051 204.06ZM346.041 124.692C343.942 124.691 341.895 125.348 340.188 126.571C338.482 127.794 337.203 129.522 336.53 131.511C331.544 146.207 319.502 181.946 315.338 196.331C315.174 196.923 315.146 197.544 315.257 198.148C315.367 198.752 315.614 199.323 315.978 199.818C316.341 200.312 316.813 200.718 317.357 201.004C317.9 201.289 318.502 201.448 319.116 201.467L418.839 202.713C421.142 202.748 423.395 202.039 425.264 200.692C427.132 199.344 428.516 197.43 429.21 195.234L449.616 132.333C449.905 131.441 449.979 130.493 449.832 129.566C449.684 128.64 449.32 127.761 448.768 127.003C448.216 126.244 447.492 125.627 446.656 125.201C445.82 124.776 444.895 124.554 443.957 124.555L346.041 124.692Z" fill="#5468FF"/>
<path d="M507.518 14.8589H481.141C480.384 14.8589 479.77 15.4728 479.77 16.2301V16.8284C479.77 17.5857 480.384 18.1996 481.141 18.1996H507.518C508.275 18.1996 508.889 17.5857 508.889 16.8284V16.2301C508.889 15.4728 508.275 14.8589 507.518 14.8589Z" fill="white"/>
<path d="M360.451 202.376C360.451 199.123 359.292 193.75 352.311 195.919C350.922 198.204 349.337 200.365 347.574 202.376H360.451Z" fill="#F5B58F"/>
<path d="M405.663 202.377C404.653 198.949 398.745 197.129 398.745 197.129L393.01 201.305L393.285 202.364L405.663 202.377Z" fill="#F5B58F"/>
<path d="M359.117 200.108C359.458 200.832 359.726 201.588 359.915 202.365H362.919C364.363 200.642 365.261 198.529 365.499 196.294C365.499 196.219 365.499 196.144 365.499 196.07C365.499 195.995 365.711 199.011 365.711 202.302H392.961L392.799 202.14C392.799 202.14 402.061 200.058 405.09 202.302H406.087C406.342 201.552 406.359 200.741 406.136 199.98C405.913 199.219 405.46 198.546 404.84 198.052C404.84 198.052 405.389 177.508 402.235 172.086C399.081 166.664 383.275 163.51 383.275 163.51L375.21 164.058C375.21 164.058 367.382 165.941 362.583 169.718C357.783 173.495 354.517 192.741 354.517 192.741C353.816 192.881 353.196 193.285 352.785 193.87C352.374 194.455 352.204 195.176 352.311 195.883C353.746 195.782 355.175 196.137 356.397 196.895C357.619 197.654 358.571 198.778 359.117 200.108Z" fill="#5468FF"/>
<path d="M392.736 202.376L392.823 202.214C392.823 202.214 394.157 190.572 389.832 180.425C389.832 180.425 390.542 195.845 384.247 200.17C382.835 201.097 381.31 201.838 379.71 202.376H392.736Z" fill="#5468FF"/>
<path d="M362.919 202.376C364.362 200.654 365.261 198.54 365.499 196.306C365.039 191.611 364.252 186.954 363.143 182.369C363.815 186.338 363.637 190.404 362.619 194.299C361.974 196.509 360.768 198.515 359.117 200.12C359.458 200.843 359.725 201.599 359.915 202.376H362.919Z" fill="#5468FF"/>
<path opacity="0.25" d="M392.736 202.376L392.823 202.214C392.823 202.214 394.157 190.572 389.832 180.425C389.832 180.425 390.542 195.845 384.247 200.17C382.835 201.097 381.31 201.838 379.71 202.376H392.736Z" fill="#000D44"/>
<path opacity="0.25" d="M362.919 202.376C364.362 200.654 365.261 198.54 365.499 196.306C365.039 191.611 364.252 186.954 363.143 182.369C363.815 186.338 363.637 190.404 362.619 194.299C361.974 196.509 360.768 198.515 359.117 200.12C359.458 200.843 359.725 201.599 359.915 202.376H362.919Z" fill="#000D44"/>
<path d="M398.483 202.377C396.171 201.8 393.752 201.8 391.44 202.377H398.483Z" fill="#F5B58F"/>
<path d="M384.97 163.871C384.97 163.871 383.126 174.255 377.616 174.317C372.804 174.317 373.876 168.085 374.275 166.452C374.275 166.215 374.362 166.078 374.362 166.078L372.368 158.474L382.964 152.864L383.175 154.024L384.97 163.871Z" fill="#EFAB89"/>
<path d="M384.373 149.112C385.31 147.152 385.896 145.042 386.105 142.879C386.417 139.651 385.519 138.903 384.173 138.903C384.173 138.903 383.463 135.25 381.78 133.991C380.097 132.732 373.203 134.577 370.561 136.16C367.918 137.743 365.998 133.405 364.777 133.58C363.555 133.754 363.318 137.108 364.266 138.566C364.266 138.566 362.059 137.32 361.71 136.073C361.361 134.827 358.843 137.095 359.741 141.782C360.638 146.469 362.732 147.055 362.732 147.055C362.732 147.055 363.131 152.041 367.183 152.565C371.234 153.088 381.929 152.166 381.929 152.166L384.373 149.112Z" fill="#000D44"/>
<path d="M365.524 147.379C365.524 147.379 367.494 160.83 372.443 162.562C377.392 164.295 381.542 158.997 382.166 157.576C382.639 156.154 382.94 154.681 383.063 153.188C383.063 153.188 384.759 153.575 384.946 150.595C385.133 147.616 382.552 145.834 381.916 150.994C381.916 150.994 379.486 149.66 380.221 145.098C378.371 146.712 376.019 147.637 373.565 147.716C369.688 147.716 373.041 145.098 373.041 145.098C370.917 146.788 368.229 147.604 365.524 147.379Z" fill="#F5B58F"/>
<path d="M491.251 54.9854H464.874C464.117 54.9854 463.503 55.5993 463.503 56.3565V56.9549C463.503 57.7122 464.117 58.3261 464.874 58.3261H491.251C492.008 58.3261 492.622 57.7122 492.622 56.9549V56.3565C492.622 55.5993 492.008 54.9854 491.251 54.9854Z" fill="white"/>
<path d="M592.258 54.9854H509.687C508.93 54.9854 508.316 55.5993 508.316 56.3565V56.9549C508.316 57.7122 508.93 58.3261 509.687 58.3261H592.258C593.015 58.3261 593.629 57.7122 593.629 56.9549V56.3565C593.629 55.5993 593.015 54.9854 592.258 54.9854Z" fill="white"/>
<path d="M601.146 28.8203H585.004C584.246 28.8203 583.632 29.4342 583.632 30.1915V30.7899C583.632 31.5471 584.246 32.1611 585.004 32.1611H601.146C601.904 32.1611 602.518 31.5471 602.518 30.7899V30.1915C602.518 29.4342 601.904 28.8203 601.146 28.8203Z" fill="white"/>
<path d="M528.111 41.7842H472.266C471.508 41.7842 470.895 42.3981 470.895 43.1554V43.7537C470.895 44.511 471.508 45.1249 472.266 45.1249H528.111C528.868 45.1249 529.482 44.511 529.482 43.7537V43.1554C529.482 42.3981 528.868 41.7842 528.111 41.7842Z" fill="white"/>
<path d="M596.808 41.7842H546.087C545.329 41.7842 544.715 42.3981 544.715 43.1554V43.7537C544.715 44.511 545.329 45.1249 546.087 45.1249H596.808C597.566 45.1249 598.18 44.511 598.18 43.7537V43.1554C598.18 42.3981 597.566 41.7842 596.808 41.7842Z" fill="white"/>
<path d="M603.303 14.8589H521.18C520.423 14.8589 519.809 15.4728 519.809 16.2301V16.8284C519.809 17.5857 520.423 18.1996 521.18 18.1996H603.303C604.06 18.1996 604.674 17.5857 604.674 16.8284V16.2301C604.674 15.4728 604.06 14.8589 603.303 14.8589Z" fill="white"/>
<path d="M562.117 28.8203H475.906C475.149 28.8203 474.535 29.4342 474.535 30.1915V30.7899C474.535 31.5471 475.149 32.1611 475.906 32.1611H562.117C562.874 32.1611 563.488 31.5471 563.488 30.7899V30.1915C563.488 29.4342 562.874 28.8203 562.117 28.8203Z" fill="white"/>
<path d="M491.139 124.069H577.898C579.237 124.069 580.558 124.382 581.755 124.981C582.953 125.58 583.995 126.45 584.798 127.522C585.601 128.593 586.143 129.837 586.382 131.155C586.621 132.473 586.55 133.828 586.175 135.113L581.002 152.852C580.282 155.316 578.782 157.48 576.728 159.019C574.674 160.559 572.176 161.391 569.609 161.39H479.346C478.142 161.388 476.956 161.103 475.882 160.558C474.808 160.014 473.877 159.224 473.164 158.254C472.451 157.284 471.976 156.16 471.777 154.973C471.577 153.785 471.659 152.568 472.017 151.418L477.501 134.116C478.412 131.21 480.225 128.669 482.677 126.863C485.129 125.056 488.093 124.078 491.139 124.069Z" fill="#5468FF"/>
<path d="M528.336 225.113L536.775 225.599L528.747 232.281L527.887 240.795L521.143 237.417L512.168 242.191L516.032 233.415L511.345 227.843L520.47 225.811L526.541 217.597L528.336 225.113Z" fill="white"/>
<path d="M479.895 224.84L488.334 225.326L480.306 232.007L479.459 240.521L472.702 237.131L463.74 241.917L467.591 233.129L462.904 227.57L472.042 225.538L478.112 217.311L479.895 224.84Z" fill="white"/>
<path d="M428.525 223.605L436.964 224.091L428.936 230.773L428.076 239.287L421.332 235.908L412.37 240.683L416.221 231.907L411.534 226.347L420.659 224.303L426.742 216.088L428.525 223.605Z" fill="white"/>
<path d="M379.972 225.151L388.411 225.637L380.383 232.319L379.523 240.845L372.779 237.454L363.816 242.229L367.668 233.453L362.981 227.893L372.106 225.849L378.189 217.634L379.972 225.151Z" fill="white"/>
<path d="M331.469 224.328L339.908 224.814L331.88 231.508L331.02 240.022L324.276 236.632L315.301 241.406L319.165 232.63L314.478 227.071L323.603 225.026L329.674 216.812L331.469 224.328Z" fill="white"/>
<path d="M456.66 204.035L461.646 183.218C462.385 180.142 464.16 177.414 466.673 175.491C469.185 173.569 472.283 172.569 475.445 172.659L566.131 175.29C567.182 175.322 568.21 175.602 569.132 176.108C570.054 176.614 570.842 177.332 571.433 178.201C572.024 179.071 572.401 180.068 572.532 181.111C572.664 182.154 572.546 183.213 572.189 184.202L564.885 204.384C564.274 206.066 563.16 207.52 561.695 208.548C560.23 209.576 558.485 210.128 556.695 210.131H461.434C460.692 210.118 459.963 209.939 459.299 209.609C458.635 209.278 458.053 208.804 457.595 208.22C457.138 207.636 456.816 206.957 456.655 206.233C456.493 205.509 456.494 204.758 456.66 204.035Z" fill="#5468FF"/>
<path d="M550.075 134.303H492.622V137.033H550.075V134.303Z" fill="white"/>
<path d="M510.622 141.358H489.331V144.088H510.622V141.358Z" fill="white"/>
<path d="M533.77 149.623H486.988V152.353H533.77V149.623Z" fill="white"/>
<path d="M572.065 141.969H525.282V144.699H572.065V141.969Z" fill="white"/>
<path d="M570.232 149.698H554.463V152.428H570.232V149.698Z" fill="white"/>
<path d="M574.857 134.153H560.983V136.883H574.857V134.153Z" fill="white"/>
<path d="M296.242 167.137L295.057 166.75L328.54 63.0752H397.461V64.3217H329.45L296.242 167.137Z" fill="#5468FF"/>
<g opacity="0.25">
<path opacity="0.25" d="M296.242 167.137L295.057 166.75L328.54 63.0752H397.461V64.3217H329.45L296.242 167.137Z" fill="#000D44"/>
</g>
<path d="M621.116 90.6488L619.932 90.2873L627.873 64.3217H614.148V63.0752H629.555L621.116 90.6488Z" fill="#5468FF"/>
<g opacity="0.25">
<path opacity="0.25" d="M621.116 90.6488L619.932 90.2873L627.873 64.3217H614.148V63.0752H629.555L621.116 90.6488Z" fill="#000D44"/>
</g>
<path d="M566.069 259.681H542.858V258.435H565.159L568.649 247.627L569.846 248.001L566.069 259.681Z" fill="#5468FF"/>
<path d="M566.069 259.681H542.858V258.435H565.159L568.649 247.627L569.846 248.001L566.069 259.681Z" fill="#5468FF"/>
<g opacity="0.25">
<path opacity="0.25" d="M566.069 259.681H542.858V258.435H565.159L568.649 247.627L569.846 248.001L566.069 259.681Z" fill="#000D44"/>
</g>
<path opacity="0.15" d="M234.974 663C364.746 663 469.947 657.977 469.947 651.781C469.947 645.585 364.746 640.562 234.974 640.562C105.201 640.562 0 645.585 0 651.781C0 657.977 105.201 663 234.974 663Z" fill="#5468FF"/>
<path d="M164.158 52.4672C158.137 48.4907 150.658 47.6057 145.397 47.5683C146.631 46.675 148.073 46.1128 149.586 45.9353C146.37 45.2372 138.89 47.9796 138.89 47.9796C94.7378 27.5238 83.1823 93.678 83.095 109.222C83.0078 124.767 81.9357 142.592 58.4134 154.971C12.1417 179.328 46.4715 229.526 46.4715 229.526C46.8081 229.751 64.8456 265.601 64.8456 265.601C64.534 253.011 126.662 190.809 158.1 173.083C166.152 162.774 170.029 143.889 170.328 142.405C168.06 157.439 164.906 165.741 162.276 170.365C189.326 148.576 180.126 63.0005 164.158 52.4672Z" fill="#000D44"/>
<path d="M222.309 436.029H85.189C82.9294 436.038 80.7486 435.2 79.0775 433.679C77.4065 432.158 76.3668 430.065 76.164 427.815L54.4492 199.909C54.1285 196.532 52.4794 193.42 49.8646 191.259C47.2499 189.098 43.8837 188.064 40.5065 188.384C37.1294 188.705 34.018 190.354 31.8568 192.969C29.6956 195.584 28.6616 198.95 28.9822 202.327L50.6597 430.195C51.4639 438.79 55.4467 446.775 61.8286 452.587C68.2105 458.4 76.532 461.621 85.164 461.621H104.71L117.499 481.777H126.998V630.49H84.0172C78.4652 630.527 73.1548 632.766 69.2535 636.716C65.3521 640.667 63.1792 646.005 63.2124 651.557H211.551C211.568 648.806 211.042 646.078 210.004 643.53C208.966 640.983 207.436 638.664 205.501 636.708C203.567 634.751 201.266 633.195 198.73 632.128C196.194 631.062 193.473 630.505 190.721 630.49H147.766V481.777H157.264L170.054 461.621H222.309C225.703 461.621 228.957 460.273 231.357 457.873C233.757 455.473 235.105 452.219 235.105 448.825C235.105 445.431 233.757 442.177 231.357 439.777C228.957 437.377 225.703 436.029 222.309 436.029Z" fill="#5468FF"/>
<path opacity="0.15" d="M222.309 436.029H85.189C82.9294 436.038 80.7486 435.2 79.0775 433.679C77.4065 432.158 76.3668 430.065 76.164 427.815L54.4492 199.909C54.1285 196.532 52.4794 193.42 49.8646 191.259C47.2499 189.098 43.8837 188.064 40.5065 188.384C37.1294 188.705 34.018 190.354 31.8568 192.969C29.6956 195.584 28.6616 198.95 28.9822 202.327L50.6597 430.195C51.4639 438.79 55.4467 446.775 61.8286 452.587C68.2105 458.4 76.532 461.621 85.164 461.621H104.71L117.499 481.777H126.998V630.49H84.0172C78.4652 630.527 73.1548 632.766 69.2535 636.716C65.3521 640.667 63.1792 646.005 63.2124 651.557H211.551C211.568 648.806 211.042 646.078 210.004 643.53C208.966 640.983 207.436 638.664 205.501 636.708C203.567 634.751 201.266 633.195 198.73 632.128C196.194 631.062 193.473 630.505 190.721 630.49H147.766V481.777H157.264L170.054 461.621H222.309C225.703 461.621 228.957 460.273 231.357 457.873C233.757 455.473 235.105 452.219 235.105 448.825C235.105 445.431 233.757 442.177 231.357 439.777C228.957 437.377 225.703 436.029 222.309 436.029Z" fill="#000D44"/>
<path d="M182.419 181.21C182.419 181.21 195.745 200.931 203.349 242.378C210.005 278.69 215.814 292.091 225.463 299.533C235.111 306.974 288.637 328.963 288.637 328.963L284.636 338.35C284.636 338.35 206.104 327.655 197.378 314.541C188.652 301.427 154.995 223.905 157.551 206.091C160.106 188.278 182.419 181.21 182.419 181.21Z" fill="#F5B58F"/>
<path d="M374.662 614.261C373.951 621.914 384.634 623.784 396.962 624.395C409.291 625.006 405.576 627.536 422.491 630.628C439.407 633.719 446.176 629.057 447.422 626.776C448.519 624.744 440.654 621.578 432.264 618.05L429.098 616.679C419.662 612.528 414.376 604.076 407.009 596.223C400.041 588.744 393.422 565.059 393.422 565.059L370.436 560.148C370.436 560.148 376.893 581.564 379.162 590.701C380.483 596.073 378.538 602.082 376.806 606.657C375.76 609.086 375.04 611.643 374.662 614.261Z" fill="#F5B58F"/>
<path d="M396.95 624.394C409.291 625.005 405.564 627.536 422.479 630.627C439.395 633.719 446.163 629.056 447.41 626.775C448.507 624.743 440.641 621.577 432.252 618.05L432.127 618.187C423.768 620.599 414.912 620.703 406.498 618.486C395.28 615.444 384.484 608.763 376.781 606.594C375.733 609.068 375.02 611.672 374.662 614.335C373.964 621.926 384.609 623.784 396.95 624.394Z" fill="#000D44"/>
<path d="M400.939 580.417C392.911 583.433 383.487 585.241 376.07 580.94C371.956 578.559 371.47 575.742 366.235 568.3C351.127 546.76 336.193 525.431 327.841 500.501C324.75 491.289 322.705 481.715 318.891 472.777C314.565 462.668 308.083 453.63 303.533 443.621C299.197 434.067 296.693 423.783 296.154 413.305C252.238 416.82 207.824 420.323 164.282 413.566C154.31 412.021 144.175 409.827 135.873 404.155C123.931 395.99 117.462 381.505 116.103 367.108C114.919 354.58 117.187 342.015 120.404 329.948C120.89 328.103 121.338 324.364 124.143 325.436C126.2 326.234 128.344 329.25 130.039 330.696C133.984 334.27 138.523 337.126 143.452 339.135C145.226 339.804 147.064 340.288 148.937 340.581C152.246 340.977 155.587 341.044 158.909 340.781C208.709 338.487 258.87 335.034 308.196 342.239C314.939 343.224 321.908 344.52 327.43 348.472C332.229 351.95 335.445 357.198 338.262 362.383C345.554 375.933 350.877 390.456 355.826 405.028C374.287 459.414 387.825 515.334 400.702 571.304C401.283 574.308 401.363 577.387 400.939 580.417Z" fill="#1B255E"/>
<path d="M316.199 638.804C315.488 646.458 326.171 648.328 338.499 648.939C350.828 649.55 347.113 652.08 364.029 655.172C380.944 658.263 387.713 653.601 388.96 651.32C390.057 649.288 382.191 646.122 373.802 642.594L370.635 641.223C361.199 637.072 355.914 628.62 348.547 620.767C341.578 613.288 334.959 589.603 334.959 589.603L311.973 584.692C311.973 584.692 318.43 606.108 320.699 615.245C322.02 620.617 320.076 626.626 318.343 631.213C317.299 633.639 316.579 636.191 316.199 638.804Z" fill="#F5B58F"/>
<path d="M338.499 648.977C350.84 649.588 347.113 652.118 364.028 655.21C380.944 658.301 387.713 653.639 388.959 651.358C390.056 649.326 382.191 646.16 373.801 642.632L373.677 642.782C365.318 645.198 356.462 645.305 348.048 643.093C336.829 640.052 326.034 633.37 318.33 631.201C317.283 633.672 316.571 636.271 316.211 638.93C315.488 646.484 326.146 648.316 338.499 648.977Z" fill="#000D44"/>
<path d="M157.301 163.995C156.528 163.671 155.631 163.322 154.684 162.986C154.684 160.979 154.846 158.835 154.995 156.666C155.681 146.693 157.139 136.272 157.139 136.272L124.118 127.409L122.149 126.886C121.634 137.576 119.451 148.12 115.679 158.137C112.264 158.286 110.082 158.498 110.082 158.498C109.521 160.48 124.118 190.647 143.377 191.432C149.697 191.681 166.962 168.034 157.301 163.995Z" fill="#EFAB89"/>
<path d="M162.774 146.07C162.774 146.07 118.422 143.852 120.229 116.253C122.037 88.6546 117.537 69.7819 145.92 70.0312C174.304 70.2806 179.128 81.1754 180.749 90.5245C182.369 99.8735 174.354 145.933 162.774 146.07Z" fill="#F5B58F"/>
<path d="M180.462 75.1048C174.167 66.379 168.869 67.825 165.803 70.1186C157.177 55.1601 125.564 73.8582 125.564 73.8582C122.796 85.7932 115.966 96.3951 106.243 103.85C106.243 103.85 113.984 109.372 132.919 105.832C147.878 103.04 159.844 82.8957 164.282 74.4441C166.775 76.9372 171.961 82.7461 173.27 88.1561C175.015 95.3237 175.04 109.858 179.29 109.647C179.303 109.634 189.911 88.2309 180.462 75.1048Z" fill="#000D44"/>
<path d="M279.538 376.793C251.515 357.534 115.804 351.052 115.804 351.052C115.804 351.052 77.7593 369.464 73.0847 395.579L73.3839 398.708L74.6304 411.397C75.1225 412.718 75.6928 414.009 76.3382 415.262C81.6983 425.621 96.4948 432.053 115.106 435.979H222.309C224.227 435.984 226.121 436.421 227.847 437.259C229.574 438.096 231.089 439.312 232.281 440.816C235.385 440.729 237.579 440.704 238.601 440.816C249.209 441.801 250.518 461.646 254.258 485.692C257.997 509.737 317.27 608.152 317.27 608.152C317.27 608.152 330.147 612.129 336.081 611.717C342.463 611.281 345.392 609.112 345.392 609.112C345.392 609.112 307.572 396.053 279.538 376.793Z" fill="#1B255E"/>
<path d="M222.309 436.029H115.106C154.995 444.469 212.585 441.402 232.368 440.866C231.167 439.351 229.638 438.128 227.895 437.29C226.152 436.452 224.242 436.021 222.309 436.029Z" fill="#1B255E"/>
<path opacity="0.15" d="M222.309 436.029H115.106C154.995 444.469 212.585 441.402 232.368 440.866C231.167 439.351 229.638 438.128 227.895 437.29C226.152 436.452 224.242 436.021 222.309 436.029Z" fill="#000D44"/>
<path d="M74.5808 411.46L73.3717 398.77L73.0725 395.641" fill="#1B255E"/>
<path opacity="0.15" d="M74.5808 411.46L73.3717 398.77L73.0725 395.641" fill="#000D44"/>
<path d="M154.011 359.167C161.054 355.029 170.951 353.084 180.375 351.526C192.354 349.556 203.561 348.235 207.151 343.947C211.414 338.848 198.874 333.189 188.777 327.318C183.691 324.351 179.228 321.335 177.845 318.305C176.76 315.937 176.86 310.726 177.57 304.082C179.577 285.384 186.533 255.155 186.147 245.495C185.635 232.456 181.285 212.885 181.285 212.885C199.136 209.457 198.737 202.24 198.737 202.24C196.493 196.58 185.174 175.8 180.712 170.989C176.249 166.177 157.364 163.958 157.364 163.958C157.364 163.958 162.163 181.634 141.47 181.634C120.778 181.634 110.145 158.461 110.145 158.461C110.145 158.461 100.621 206.989 93.7401 248.212C93.4534 249.945 93.1667 251.665 92.88 253.373C89.4022 274.564 86.7969 293.063 86.7969 300.879C86.7969 314.316 76.3882 344.121 70.4297 367.357L73.4214 398.782C91.4839 396.813 138.915 368.043 154.011 359.167Z" fill="#5468FF"/>
<path d="M104.436 173.769C104.436 173.769 88.6794 164.195 73.4466 182.345C58.2138 200.495 84.2791 330.247 106.842 336.916C131.91 344.321 204.346 335.67 204.346 335.67L202.95 324.351C202.95 324.351 125.901 309.642 122.635 305.516C119.369 301.39 112.439 175.863 104.436 173.769Z" fill="#F5B58F"/>
<path d="M110.095 158.498C110.095 158.498 80.452 162.15 71.053 172.796C61.6541 183.441 64.8203 217.672 64.8203 217.672C64.8203 217.672 84.6902 234.537 119.02 225.612L110.095 158.498Z" fill="#5468FF"/>
<path d="M367.145 283.452H287.304C286.558 283.453 285.824 283.642 285.171 284.001C284.517 284.361 283.964 284.879 283.564 285.509C277.93 294.371 255.667 329.399 248.113 341.802H211.913V346.851H254.657V345.978L327.979 344.52L368.978 286.88C369.212 286.551 369.35 286.163 369.377 285.759C369.403 285.356 369.315 284.954 369.125 284.597C368.934 284.241 368.648 283.945 368.298 283.742C367.948 283.54 367.549 283.439 367.145 283.452Z" fill="#5468FF"/>
<path opacity="0.25" d="M367.145 283.452H287.304C286.558 283.453 285.824 283.642 285.171 284.001C284.517 284.361 283.964 284.879 283.564 285.509C277.93 294.371 255.667 329.399 248.113 341.802H211.913V346.851H254.657V345.978L327.979 344.52L368.978 286.88C369.212 286.551 369.35 286.163 369.377 285.759C369.403 285.356 369.315 284.954 369.125 284.597C368.934 284.241 368.648 283.945 368.298 283.742C367.948 283.54 367.549 283.439 367.145 283.452Z" fill="#000D44"/>
<path d="M249.209 346.851C249.583 345.368 280.522 296.279 287.316 285.521C287.715 284.89 288.267 284.369 288.92 284.007C289.574 283.645 290.308 283.454 291.056 283.452H367.319C367.71 283.452 368.094 283.557 368.43 283.756C368.766 283.956 369.042 284.243 369.228 284.587C369.415 284.93 369.505 285.318 369.489 285.708C369.474 286.099 369.353 286.478 369.139 286.805L330.085 346.851H249.209Z" fill="#5468FF"/>
<path d="M319.639 307.884C319.182 309.138 318.371 310.233 317.305 311.036C316.239 311.839 314.962 312.316 313.631 312.409C311.138 312.409 309.891 310.402 310.689 307.934C311.155 306.687 311.971 305.602 313.039 304.808C314.107 304.014 315.382 303.545 316.71 303.459C319.178 303.397 320.499 305.404 319.639 307.884Z" fill="#5468FF"/>
<path opacity="0.25" d="M319.639 307.884C319.182 309.138 318.371 310.233 317.305 311.036C316.239 311.839 314.962 312.316 313.631 312.409C311.138 312.409 309.891 310.402 310.689 307.934C311.155 306.687 311.971 305.602 313.039 304.808C314.107 304.014 315.382 303.545 316.71 303.459C319.178 303.397 320.499 305.404 319.639 307.884Z" fill="#000D44"/>
<path d="M196.655 323.752C196.655 323.752 221.76 318.891 224.59 320.112C227.419 321.334 243.213 335.495 241.592 338.337C239.972 341.179 233.49 343.198 226.21 340.768C218.93 338.337 203.124 337.128 200.294 333.475C197.465 329.823 196.655 323.752 196.655 323.752Z" fill="#F5B58F"/>
</svg>
